<?xml version="1.0" encoding="utf-8"?>
<!-- Generator: Adobe Illustrator 19.0.0, SVG Export Plug-In . SVG Version: 6.00 Build 0)  -->
<svg version="1.1" id="Шар_1" xmlns="http://www.w3.org/2000/svg" xmlns:xlink="http://www.w3.org/1999/xlink" x="0px" y="0px"
	 width="240px" height="45.3px" viewBox="-359.3 259.5 240 45.3" style="enable-background:new -359.3 259.5 240 45.3;"
	 xml:space="preserve">
<style type="text/css">
	.st0{fill:#FFFFFF;}
</style>
<g>
	<path class="st0" d="M-121.6,270.7c-1.2,0-2.3,1-2.3,2.3c0,1.2,1,2.3,2.3,2.3c1.2,0,2.3-1,2.3-2.3
		C-119.3,271.7-120.4,270.7-121.6,270.7z M-123,272.1l1.3-0.7v1.6l-1.3,0.6L-123,272.1z M-121.6,274.5l-1.3-0.7l1.3-0.6l1.3,0.6
		L-121.6,274.5z M-121.5,273v-1.6l1.3,0.8l0,1.5L-121.5,273z"/>
	<path class="st0" d="M-340.6,275.9c0-1.1,1.1-1.7,2.7-1.7c1.4,0,3.5,0.6,5.4,1.8l1.4-3c-1.7-1.1-4.1-1.9-6.5-1.9
		c-4.1,0-6.8,2-6.8,5.2c0,6.4,9.7,4.3,9.7,8.1c0,1.3-1.2,2-3.1,2c-1.9,0-4.4-1-6.3-2.7l-1.4,2.9c1.9,1.7,4.8,2.9,7.6,2.9
		c4,0,6.9-2,6.9-5.3C-330.9,277.6-340.6,279.6-340.6,275.9z"/>
	<path class="st0" d="M-319.6,286.2c-3.4,0-6.1-2.6-6.1-6c0-3.4,2.7-6,6.1-6c1.8,0,3.6,0.9,4.9,2.4l2-2.5c-1.8-1.8-4.4-2.9-7-2.9
		c-5.4,0-9.6,4-9.6,9.1c0,5.2,4.1,9.2,9.4,9.2c2.6,0,5.3-1.2,7.1-3.1l-2-2.3C-316,285.4-317.9,286.2-319.6,286.2z"/>
	<polygon class="st0" points="-312.2,289.3 -308,289.3 -302.4,278.5 -296.9,289.3 -292.8,289.3 -302.4,270.6 	"/>
	<path class="st0" d="M-283.6,271.2h-7.4v18.1h3.5V284h4c4.5,0,7.2-2.4,7.2-6.5C-276.4,273.4-279,271.2-283.6,271.2z M-283.8,280.9
		h-3.8v-6.7h3.8c2.6,0,4.1,1.1,4.1,3.3C-279.7,279.8-281.2,280.9-283.8,280.9z"/>
	<polygon class="st0" points="-274.5,272.2 -274.5,274.2 -274.5,278.7 -274.5,284.3 -274.5,289.3 -262.3,289.3 -262.3,286.3 
		-271,286.3 -271,281.7 -262.3,281.7 -262.3,278.7 -271,278.7 -271,278.7 -271.1,278.7 -271.1,274.2 -262.3,274.2 -262.3,271.2 
		-274.5,271.2 	"/>
	<polygon class="st0" points="-359.3,272.2 -359.3,274.2 -359.3,278.7 -359.3,284.3 -359.3,289.3 -347.2,289.3 -347.2,286.3 
		-355.9,286.3 -355.9,281.7 -347.2,281.7 -347.2,278.7 -355.9,278.7 -355.9,278.7 -356,278.7 -356,274.2 -347.2,274.2 -347.2,271.2 
		-359.3,271.2 	"/>
	<path class="st0" d="M-203.9,283.9h4.1c0.2,0,0.4,0,0.6,0l3.1,5.3h4l-4-6c2.3-1,3.6-3,3.6-5.9c0-4-2.7-6.2-7.3-6.2h-7.5v18.1h3.5
		V283.9z M-203.9,274.2h4.1c2.6,0,4,1.1,4,3.3c0,2.3-1.4,3.4-4,3.4h-4.1V274.2z"/>
	<polygon class="st0" points="-129.5,276.3 -129.5,289.3 -125.6,289.3 -125.6,271.2 -130.5,271.2 -137.4,282.8 -144.3,271.2 
		-149.2,271.2 -149.2,289.3 -145.3,289.3 -145.3,276.3 -138.7,287.4 -137.4,289.1 	"/>
	<path class="st0" d="M-150.8,280.9c0-5.2-4.2-9.1-9.6-9.1c-5.5,0-9.6,3.9-9.6,9.1c0,5.2,4.2,9.2,9.6,9.2
		C-155,290.1-150.8,286.1-150.8,280.9z M-160.4,287c-3.3,0-6.2-2.7-6.2-6.1c0-3.4,2.8-6,6.2-6c3.3,0,6,2.6,6,6
		C-154.3,284.3-157,287-160.4,287z"/>
	<path class="st0" d="M-171.1,280.9c0-5.2-4.2-9.1-9.6-9.1c-5.5,0-9.6,3.9-9.6,9.1c0,5.2,4.2,9.2,9.6,9.2
		C-175.3,290.1-171.1,286.1-171.1,280.9z M-180.7,287c-3.3,0-6.2-2.7-6.2-6.1c0-3.4,2.8-6,6.2-6c3.3,0,6,2.6,6,6
		C-174.7,284.3-177.4,287-180.7,287z"/>
	<path class="st0" d="M-147.7,292.7h-1.2c-0.1,0-0.2,0.1-0.2,0.2v0.5c0,0.1,0.1,0.2,0.2,0.2h0.4v2.5c0,0.6-0.1,1-0.3,1.2
		c-0.2,0.2-0.6,0.4-1,0.4h-0.4V293c0-0.2-0.1-0.3-0.2-0.3h-0.5c-0.1,0-0.2,0.1-0.2,0.3v4.1c0,0.2,0,0.4,0.2,0.6
		c0.1,0.1,0.2,0.2,0.2,0.2h-1.8V293c0-0.2-0.1-0.3-0.2-0.3h-0.5c-0.1,0-0.2,0.1-0.2,0.3v5.5c0,0.3,0.1,0.4,0.4,0.4h3.3
		c0.9,0,1.6-0.3,2-0.8c0.3-0.4,0.5-1.1,0.5-2v-3C-147.4,292.9-147.6,292.7-147.7,292.7z"/>
	<path class="st0" d="M-155.1,292.7h-2.9v-0.4c0-0.3,0.1-0.5,0.2-0.8c0.1-0.2,0-0.3-0.1-0.3l-0.3-0.1c-0.2-0.1-0.3,0-0.4,0.1
		c-0.2,0.3-0.3,0.8-0.3,1.4v0.8c0,0.2,0.1,0.2,0.2,0.2h2.9v2.5c0,0.6-0.1,1.1-0.2,1.3c-0.2,0.2-0.5,0.4-1,0.4
		c-0.2,0-0.3,0.1-0.3,0.3v0.5c0,0.2,0.1,0.2,0.3,0.2c0.6,0,1.1-0.1,1.5-0.5c0.4-0.4,0.7-1,0.7-1.8V293
		C-154.9,292.8-154.9,292.7-155.1,292.7z"/>
	<path class="st0" d="M-184.2,297.9h-0.6V293c0-0.2-0.1-0.3-0.3-0.3h-3.1c-0.2,0-0.2,0.1-0.2,0.3v0.5c0,0.2,0.1,0.3,0.2,0.3h2.4v3.4
		c0,0.2,0,0.4,0.1,0.5c0.1,0.1,0.2,0.1,0.3,0.1h-2.9c-0.2,0-0.2,0.1-0.2,0.2v0.5c0,0.2,0.1,0.3,0.2,0.3h4c0.2,0,0.2-0.1,0.2-0.3
		v-0.5C-184,297.9-184.1,297.9-184.2,297.9z"/>
	<path class="st0" d="M-140,292.7h-3.5c-0.1,0-0.2,0.1-0.2,0.2v0.5c0,0.2,0.1,0.2,0.3,0.2h0.4v4.9c0,0.2,0.1,0.2,0.2,0.2h2.8
		c0.8,0,1.1-0.3,1.1-1v-4C-138.9,293.1-139.2,292.7-140,292.7z M-139.9,297.9h-2.2v-3.5c0-0.4-0.1-0.7-0.4-0.7h2.6V297.9z"/>
	<path class="st0" d="M-125.6,292.7h-0.5c-0.2,0-0.2,0.1-0.2,0.3v3.2c0,0.6-0.1,1.1-0.3,1.3c-0.2,0.2-0.6,0.4-1.2,0.4l0.2-0.1
		c0.1-0.1,0.2-0.2,0.2-0.4c0-0.1,0-0.1,0-0.2l-0.7-3c-0.2-0.7-0.4-1.2-0.6-1.3c-0.1-0.1-0.3-0.1-0.4,0l-0.3,0.2
		c-0.1,0.1-0.2,0.2-0.1,0.3c0.1,0.2,0.3,0.5,0.4,0.9l0.9,3.7h-1.2c-0.2,0-0.2,0.1-0.2,0.2v0.5c0,0.1,0.1,0.3,0.2,0.3h1.9
		c0.6,0,1.2-0.2,1.6-0.5c0.5-0.4,0.7-1,0.7-1.7V293C-125.4,292.8-125.5,292.7-125.6,292.7z"/>
	<path class="st0" d="M-131.2,292.7h-1.5c-0.1,0-0.2,0.1-0.2,0.3v0.5c0,0.2,0.1,0.3,0.2,0.3h0.8l0,4.8c0,0.2,0.1,0.3,0.2,0.3h0.5
		c0.2,0,0.2-0.1,0.2-0.3V293C-130.9,292.8-131,292.7-131.2,292.7z"/>
	<path class="st0" d="M-134.2,292.7h-2.9v-0.4c0-0.3,0.1-0.5,0.2-0.8c0.1-0.2,0-0.3-0.1-0.3l-0.3-0.1c-0.2-0.1-0.3,0-0.4,0.1
		c-0.2,0.3-0.3,0.8-0.3,1.4v0.8c0,0.2,0.1,0.2,0.2,0.2h2.9v2.5c0,0.6-0.1,1.1-0.2,1.3c-0.2,0.2-0.5,0.4-1,0.4
		c-0.2,0-0.3,0.1-0.3,0.3v0.5c0,0.2,0.1,0.2,0.3,0.2c0.6,0,1.1-0.1,1.5-0.5c0.4-0.4,0.7-1,0.7-1.8V293
		C-133.9,292.8-134,292.7-134.2,292.7z"/>
	<path class="st0" d="M-168.5,292.7h-3.8c-0.2,0-0.2,0.1-0.2,0.3v0.5c0,0.1,0.1,0.2,0.2,0.2h2.5c-0.1,0-0.2,0.1-0.3,0.2
		c-0.1,0.1-0.2,0.3-0.2,0.6v4.1c0,0.1,0.1,0.3,0.2,0.3h0.5c0.2,0,0.2-0.1,0.2-0.3v-4.9h0.7c0.2,0,0.2-0.1,0.2-0.2V293
		C-168.3,292.8-168.4,292.7-168.5,292.7z"/>
	<path class="st0" d="M-163.1,292.7h-4.1c-0.1,0-0.2,0.1-0.2,0.3v0.5c0,0.2,0.1,0.3,0.2,0.3h0.7c-0.1,0-0.1,0.1-0.2,0.2
		c-0.1,0.1-0.2,0.3-0.2,0.5v4.1c0,0.1,0.1,0.3,0.2,0.3h0.5c0.1,0,0.2-0.1,0.2-0.2v-4.8h2v4.8c0,0.2,0.1,0.3,0.2,0.3h0.5
		c0.2,0,0.2-0.1,0.2-0.3V293C-162.8,292.9-163,292.7-163.1,292.7z"/>
	<path class="st0" d="M-194.5,292.7h-1.5c-0.1,0-0.2,0.1-0.2,0.3v0.5c0,0.2,0.1,0.3,0.2,0.3h0.8v2.3c0,0.2,0.1,0.3,0.2,0.3h0.5
		c0.2,0,0.2-0.1,0.2-0.3v-3C-194.3,292.9-194.4,292.7-194.5,292.7z"/>
	<path class="st0" d="M-197.8,292.7h-4.1c-0.1,0-0.2,0.1-0.2,0.3v0.5c0,0.2,0.1,0.3,0.2,0.3h0.7c-0.1,0-0.1,0.1-0.2,0.2
		c-0.1,0.1-0.2,0.3-0.2,0.5v4.1c0,0.1,0.1,0.3,0.2,0.3h0.5c0.1,0,0.2-0.1,0.2-0.2v-4.8h2v4.8c0,0.2,0.1,0.3,0.2,0.3h0.5
		c0.2,0,0.2-0.1,0.2-0.3V293C-197.5,292.9-197.7,292.7-197.8,292.7z"/>
	<path class="st0" d="M-190.7,292.7h-2.5c-0.1,0-0.2,0.1-0.2,0.3l0,0.5c0,0.2,0.1,0.3,0.2,0.3h2.6v4.8c0,0.2,0.1,0.3,0.2,0.3h0.5
		c0.2,0,0.2-0.1,0.2-0.3v-4.7C-189.6,293.1-189.9,292.7-190.7,292.7z"/>
	<path class="st0" d="M-204.3,292.7h-2.9c-0.1,0-0.2,0.1-0.2,0.3v0.5c0,0.1,0.1,0.3,0.2,0.3h3v4.8c0,0.2,0.1,0.3,0.2,0.3h0.5
		c0.2,0,0.2-0.1,0.2-0.3v-4.7C-203.2,293.1-203.5,292.7-204.3,292.7z"/>
	<path class="st0" d="M-174.6,292.7h-2.5c-0.1,0-0.2,0.1-0.2,0.3l0,0.5c0,0.2,0.1,0.3,0.2,0.3h2.6v4.8c0,0.2,0.1,0.3,0.2,0.3h0.5
		c0.2,0,0.2-0.1,0.2-0.3v-4.7C-173.5,293.1-173.9,292.7-174.6,292.7z"/>
	<path class="st0" d="M-206.3,295.2h-0.5c-0.1,0-0.2,0.1-0.2,0.3v3.2c0,0.1,0.1,0.2,0.2,0.2h0.5c0.1,0,0.2-0.1,0.2-0.2v-3.2
		C-206.1,295.3-206.2,295.2-206.3,295.2z"/>
	<path class="st0" d="M-178.5,292.7h-1.5c-0.1,0-0.2,0.1-0.2,0.3v0.5c0,0.2,0.1,0.3,0.2,0.3h0.8v2.3c0,0.2,0.1,0.3,0.2,0.3h0.5
		c0.2,0,0.2-0.1,0.2-0.3v-3C-178.2,292.9-178.4,292.7-178.5,292.7z"/>
	<polygon class="st0" points="-235.1,297.1 -228.5,294.1 -235.1,291 -241.6,294.1 	"/>
	<path class="st0" d="M-256.6,270.4v24.4l21.7,10.1l21.7-10.1v-24.4l-21.7-10.9L-256.6,270.4z M-248.1,289.4l-6.6,3.1v-21l18.9-9.5
		v21.6l-6,2.8v-13.3l-6.3,3.1V289.4z M-228.9,300l-6.2-2.9l-6.2,2.9l-6.5-3l6.2-2.9l-6.1-2.8l6.5-3.1l6.2,2.9l6.2-2.9l6.5,3.1
		l-6.1,2.9l6.2,2.9L-228.9,300z M-233.9,262l18.9,9.5v21l-18.9-8.9V262z"/>
	<polygon class="st0" points="-227.7,279.4 -221.4,282.2 -221.4,276.4 -227.7,273.3 	"/>
</g>
</svg>
